<?xml version="1.0" standalone="no"?>
<!DOCTYPE svg PUBLIC "-//W3C//DTD SVG 1.1//EN" 
  "http://www.w3.org/Graphics/SVG/1.1/DTD/svg11.dtd">
<svg width="1024" height="1024" viewBox="0 0 1024 1024"
     xmlns="http://www.w3.org/2000/svg" version="1.1">
<desc>sachitsarm.blend, (Blender 4.0.1)</desc>
<polygon stroke="black" stroke-width="1" fill="rgb(204, 204, 204)" fill-opacity="0.25" points="101.662,998.652 160.281,666.720 151.000,665.142 95.214,997.554 " />
<polygon stroke="black" stroke-width="1" fill="rgb(204, 204, 204)" fill-opacity="0.25" points="95.214,997.554 151.000,665.142 141.798,663.664 88.785,996.518 " />
<polygon stroke="black" stroke-width="1" fill="rgb(204, 204, 204)" fill-opacity="0.25" points="88.785,996.518 141.798,663.664 132.650,662.282 82.392,995.546 " />
<polygon stroke="black" stroke-width="1" fill="rgb(204, 204, 204)" fill-opacity="0.25" points="82.392,995.546 132.650,662.282 123.509,660.986 76.044,994.637 " />
<polygon stroke="black" stroke-width="1" fill="rgb(204, 204, 204)" fill-opacity="0.25" points="76.044,994.637 123.509,660.986 114.330,659.766 69.744,993.790 " />
<polygon stroke="black" stroke-width="1" fill="rgb(204, 204, 204)" fill-opacity="0.25" points="69.744,993.790 114.330,659.766 105.081,658.613 63.486,993.002 " />
<polygon stroke="black" stroke-width="1" fill="rgb(204, 204, 204)" fill-opacity="0.25" points="63.486,993.002 105.081,658.613 95.760,657.524 57.257,992.268 " />
<polygon stroke="black" stroke-width="1" fill="rgb(204, 204, 204)" fill-opacity="0.25" points="57.257,992.268 95.760,657.524 86.394,656.499 51.043,991.586 " />
<polygon stroke="black" stroke-width="1" fill="rgb(204, 204, 204)" fill-opacity="0.25" points="51.043,991.586 86.394,656.499 77.029,655.543 44.823,990.952 " />
<polygon stroke="black" stroke-width="1" fill="rgb(204, 204, 204)" fill-opacity="0.25" points="44.823,990.952 77.029,655.543 67.709,654.661 38.580,990.367 " />
<polygon stroke="black" stroke-width="1" fill="rgb(204, 204, 204)" fill-opacity="0.25" points="38.580,990.367 67.709,654.661 58.452,653.858 32.297,989.830 " />
<polygon stroke="black" stroke-width="1" fill="rgb(204, 204, 204)" fill-opacity="0.25" points="32.297,989.830 58.452,653.858 49.247,653.135 25.961,989.341 " />
<polygon stroke="black" stroke-width="1" fill="rgb(204, 204, 204)" fill-opacity="0.25" points="25.961,989.341 49.247,653.135 40.054,652.496 19.564,988.904 " />
<polygon stroke="black" stroke-width="1" fill="rgb(204, 204, 204)" fill-opacity="0.25" points="19.564,988.904 40.054,652.496 30.820,651.938 13.110,988.520 " />
<polygon stroke="black" stroke-width="1" fill="rgb(204, 204, 204)" fill-opacity="0.25" points="13.110,988.520 30.820,651.938 21.503,651.462 6.607,988.191 " />
<polygon stroke="black" stroke-width="1" fill="rgb(204, 204, 204)" fill-opacity="0.25" points="6.607,988.191 21.503,651.462 12.077,651.068 0.072,987.919 " />
<polygon stroke="black" stroke-width="1" fill="rgb(204, 204, 204)" fill-opacity="0.25" points="200.897,1023.928 308.259,704.418 299.209,701.408 194.684,1021.861 " />
<polygon stroke="black" stroke-width="1" fill="rgb(204, 204, 204)" fill-opacity="0.25" points="194.684,1021.861 299.209,701.408 290.061,698.457 188.468,1019.854 " />
<polygon stroke="black" stroke-width="1" fill="rgb(204, 204, 204)" fill-opacity="0.25" points="188.468,1019.854 290.061,698.457 280.856,695.581 182.268,1017.916 " />
<polygon stroke="black" stroke-width="1" fill="rgb(204, 204, 204)" fill-opacity="0.25" points="182.268,1017.916 280.856,695.581 271.634,692.792 176.102,1016.051 " />
<polygon stroke="black" stroke-width="1" fill="rgb(204, 204, 204)" fill-opacity="0.25" points="176.102,1016.051 271.634,692.792 262.429,690.102 169.976,1014.261 " />
<polygon stroke="black" stroke-width="1" fill="rgb(204, 204, 204)" fill-opacity="0.25" points="169.976,1014.261 262.429,690.102 253.256,687.518 163.888,1012.546 " />
<polygon stroke="black" stroke-width="1" fill="rgb(204, 204, 204)" fill-opacity="0.25" points="163.888,1012.546 253.256,687.518 244.110,685.039 157.828,1010.904 " />
<polygon stroke="black" stroke-width="1" fill="rgb(204, 204, 204)" fill-opacity="0.25" points="157.828,1010.904 244.110,685.039 234.970,682.661 151.775,1009.330 " />
<polygon stroke="black" stroke-width="1" fill="rgb(204, 204, 204)" fill-opacity="0.25" points="151.775,1009.330 234.970,682.661 225.806,680.377 145.708,1007.817 " />
<polygon stroke="black" stroke-width="1" fill="rgb(204, 204, 204)" fill-opacity="0.25" points="145.708,1007.817 225.806,680.377 216.589,678.178 139.601,1006.360 " />
<polygon stroke="black" stroke-width="1" fill="rgb(204, 204, 204)" fill-opacity="0.25" points="139.601,1006.360 216.589,678.178 207.300,676.059 133.436,1004.954 " />
<polygon stroke="black" stroke-width="1" fill="rgb(204, 204, 204)" fill-opacity="0.25" points="133.436,1004.954 207.300,676.059 197.937,674.019 127.201,1003.595 " />
<polygon stroke="black" stroke-width="1" fill="rgb(204, 204, 204)" fill-opacity="0.25" points="127.201,1003.595 197.937,674.019 188.516,672.059 120.894,1002.284 " />
<polygon stroke="black" stroke-width="1" fill="rgb(204, 204, 204)" fill-opacity="0.25" points="120.894,1002.284 188.516,672.059 179.070,670.184 114.524,1001.021 " />
<polygon stroke="black" stroke-width="1" fill="rgb(204, 204, 204)" fill-opacity="0.25" points="123.638,660.205 132.711,661.911 150.530,584.124 141.924,582.477 " />
<polygon stroke="black" stroke-width="1" fill="rgb(204, 204, 204)" fill-opacity="0.25" points="114.524,1001.021 179.070,670.184 169.645,668.402 108.106,999.809 " />
<polygon stroke="black" stroke-width="1" fill="rgb(204, 204, 204)" fill-opacity="0.25" points="108.106,999.809 169.645,668.402 160.281,666.720 101.662,998.652 " />
<polygon stroke="black" stroke-width="1" fill="rgb(204, 204, 204)" fill-opacity="0.25" points="86.976,579.825 96.142,580.093 105.886,335.889 93.348,335.551 " />
<polygon stroke="black" stroke-width="1" fill="rgb(204, 204, 204)" fill-opacity="0.25" points="42.402,639.427 51.202,642.162 71.352,564.911 63.013,562.347 " />
<polygon stroke="black" stroke-width="1" fill="rgb(204, 204, 204)" fill-opacity="0.25" points="254.223,682.802 263.607,684.471 276.908,606.009 267.694,604.375 " />
<polygon stroke="black" stroke-width="1" fill="rgb(204, 204, 204)" fill-opacity="0.25" points="169.663,668.299 179.123,669.885 194.256,591.711 185.277,590.195 " />
<polygon stroke="black" stroke-width="1" fill="rgb(204, 204, 204)" fill-opacity="0.25" points="78.009,649.841 87.126,652.185 106.333,574.552 97.336,572.252 " />
<polygon stroke="black" stroke-width="1" fill="rgb(204, 204, 204)" fill-opacity="0.25" points="292.017,689.592 301.474,691.311 313.411,612.568 304.408,610.942 " />
<polygon stroke="black" stroke-width="1" fill="rgb(204, 204, 204)" fill-opacity="0.25" points="207.556,674.688 216.947,676.296 230.904,597.953 221.699,596.372 " />
<polygon stroke="black" stroke-width="1" fill="rgb(204, 204, 204)" fill-opacity="0.25" points="114.556,658.399 123.638,660.205 141.924,582.477 133.212,580.711 " />
<polygon stroke="black" stroke-width="1" fill="rgb(204, 204, 204)" fill-opacity="0.25" points="33.589,636.616 42.402,639.427 63.013,562.347 54.719,559.723 " />
<polygon stroke="black" stroke-width="1" fill="rgb(204, 204, 204)" fill-opacity="0.25" points="151.000,665.142 160.281,666.720 176.430,588.696 167.716,587.200 " />
<polygon stroke="black" stroke-width="1" fill="rgb(204, 204, 204)" fill-opacity="0.25" points="244.891,681.155 254.223,682.802 267.694,604.375 258.490,602.753 " />
<polygon stroke="black" stroke-width="1" fill="rgb(204, 204, 204)" fill-opacity="0.25" points="160.281,666.720 169.663,668.299 185.277,590.195 176.430,588.696 " />
<polygon stroke="black" stroke-width="1" fill="rgb(204, 204, 204)" fill-opacity="0.25" points="68.977,647.379 78.009,649.841 97.336,572.252 88.482,569.869 " />
<polygon stroke="black" stroke-width="1" fill="rgb(204, 204, 204)" fill-opacity="0.25" points="282.527,687.871 292.017,689.592 304.408,610.942 295.297,609.299 " />
<polygon stroke="black" stroke-width="1" fill="rgb(204, 204, 204)" fill-opacity="0.25" points="198.108,673.082 207.556,674.688 221.699,596.372 212.503,594.802 " />
<polygon stroke="black" stroke-width="1" fill="rgb(204, 204, 204)" fill-opacity="0.25" points="105.438,656.468 114.556,658.399 133.212,580.711 124.358,578.801 " />
<polygon stroke="black" stroke-width="1" fill="rgb(204, 204, 204)" fill-opacity="0.25" points="24.715,633.736 33.589,636.616 54.719,559.723 46.388,557.035 " />
<polygon stroke="black" stroke-width="1" fill="rgb(204, 204, 204)" fill-opacity="0.25" points="235.589,679.526 244.891,681.155 258.490,602.753 249.295,601.143 " />
<polygon stroke="black" stroke-width="1" fill="rgb(204, 204, 204)" fill-opacity="0.25" points="141.818,663.546 151.000,665.142 167.716,587.200 159.102,585.686 " />
<polygon stroke="black" stroke-width="1" fill="rgb(204, 204, 204)" fill-opacity="0.25" points="60.046,644.815 68.977,647.379 88.482,569.869 79.823,567.419 " />
<polygon stroke="black" stroke-width="1" fill="rgb(204, 204, 204)" fill-opacity="0.25" points="273.046,686.162 282.527,687.871 295.297,609.299 286.118,607.652 " />
<polygon stroke="black" stroke-width="1" fill="rgb(204, 204, 204)" fill-opacity="0.25" points="188.620,671.480 198.108,673.082 212.503,594.802 203.343,593.247 " />
<polygon stroke="black" stroke-width="1" fill="rgb(204, 204, 204)" fill-opacity="0.25" points="96.284,654.397 105.438,656.468 124.358,578.801 115.375,576.744 " />
<polygon stroke="black" stroke-width="1" fill="rgb(204, 204, 204)" fill-opacity="0.25" points="15.750,630.797 24.715,633.736 46.388,557.035 37.955,554.284 " />
<polygon stroke="black" stroke-width="1" fill="rgb(204, 204, 204)" fill-opacity="0.25" points="226.284,677.908 235.589,679.526 249.295,601.143 240.103,599.543 " />
<polygon stroke="black" stroke-width="1" fill="rgb(204, 204, 204)" fill-opacity="0.25" points="132.711,661.911 141.818,663.546 159.102,585.686 150.530,584.124 " />
<polygon stroke="black" stroke-width="1" fill="rgb(204, 204, 204)" fill-opacity="0.25" points="51.202,642.162 60.046,644.815 79.823,567.419 71.352,564.911 " />
<polygon stroke="black" stroke-width="1" fill="rgb(204, 204, 204)" fill-opacity="0.25" points="263.607,684.471 273.046,686.162 286.118,607.652 276.908,606.009 " />
<polygon stroke="black" stroke-width="1" fill="rgb(204, 204, 204)" fill-opacity="0.25" points="179.123,669.885 188.620,671.480 203.343,593.247 194.256,591.711 " />
<polygon stroke="black" stroke-width="1" fill="rgb(204, 204, 204)" fill-opacity="0.25" points="87.126,652.185 96.284,654.397 115.375,576.744 106.333,574.552 " />
<polygon stroke="black" stroke-width="1" fill="rgb(204, 204, 204)" fill-opacity="0.25" points="301.474,691.311 310.858,693.015 322.280,614.167 313.411,612.568 " />
<polygon stroke="black" stroke-width="1" fill="rgb(204, 204, 204)" fill-opacity="0.25" points="216.947,676.296 226.284,677.908 240.103,599.543 230.904,597.953 " />
<polygon stroke="black" stroke-width="1" fill="rgb(204, 204, 204)" fill-opacity="0.25" points="56.864,324.246 69.214,325.945 84.203,218.901 71.984,217.279 " />
<polygon stroke="black" stroke-width="1" fill="rgb(204, 204, 204)" fill-opacity="0.25" points="248.417,605.366 257.383,607.960 326.885,373.900 314.820,370.411 " />
<polygon stroke="black" stroke-width="1" fill="rgb(204, 204, 204)" fill-opacity="0.25" points="77.978,579.707 86.976,579.825 93.348,335.551 80.825,335.418 " />
<polygon stroke="black" stroke-width="1" fill="rgb(204, 204, 204)" fill-opacity="0.25" points="239.424,602.880 248.417,605.366 314.820,370.411 302.715,367.065 " />
<polygon stroke="black" stroke-width="1" fill="rgb(204, 204, 204)" fill-opacity="0.25" points="69.145,579.734 77.978,579.707 80.825,335.418 68.328,335.480 " />
<polygon stroke="black" stroke-width="1" fill="rgb(204, 204, 204)" fill-opacity="0.25" points="230.396,600.501 239.424,602.880 302.715,367.065 290.581,363.868 " />
<polygon stroke="black" stroke-width="1" fill="rgb(204, 204, 204)" fill-opacity="0.25" points="60.422,579.902 69.145,579.734 68.328,335.480 55.864,335.729 " />
<polygon stroke="black" stroke-width="1" fill="rgb(204, 204, 204)" fill-opacity="0.25" points="221.337,598.230 230.396,600.501 290.581,363.868 278.431,360.822 " />
<polygon stroke="black" stroke-width="1" fill="rgb(204, 204, 204)" fill-opacity="0.25" points="51.728,580.205 60.422,579.902 55.864,335.729 43.436,336.155 " />
<polygon stroke="black" stroke-width="1" fill="rgb(204, 204, 204)" fill-opacity="0.25" points="167.716,587.200 176.430,588.696 217.550,347.995 205.319,345.922 " />
<polygon stroke="black" stroke-width="1" fill="rgb(204, 204, 204)" fill-opacity="0.25" points="212.261,596.070 221.337,598.230 278.431,360.822 266.272,357.933 " />
<polygon stroke="black" stroke-width="1" fill="rgb(204, 204, 204)" fill-opacity="0.25" points="42.984,580.640 51.728,580.205 43.436,336.155 31.039,336.753 " />
<polygon stroke="black" stroke-width="1" fill="rgb(204, 204, 204)" fill-opacity="0.25" points="159.076,585.845 167.716,587.200 205.319,345.922 193.049,344.015 " />
<polygon stroke="black" stroke-width="1" fill="rgb(204, 204, 204)" fill-opacity="0.25" points="203.197,594.028 212.261,596.070 266.272,357.933 254.106,355.204 " />
<polygon stroke="black" stroke-width="1" fill="rgb(204, 204, 204)" fill-opacity="0.25" points="34.132,581.205 42.984,580.640 31.039,336.753 18.663,337.516 " />
<polygon stroke="black" stroke-width="1" fill="rgb(204, 204, 204)" fill-opacity="0.25" points="150.448,584.628 159.076,585.845 193.049,344.015 180.731,342.280 " />
<polygon stroke="black" stroke-width="1" fill="rgb(204, 204, 204)" fill-opacity="0.25" points="194.182,592.114 203.197,594.028 254.106,355.204 241.935,352.637 " />
<polygon stroke="black" stroke-width="1" fill="rgb(204, 204, 204)" fill-opacity="0.25" points="310.267,625.700 318.679,628.934 409.424,402.242 397.858,397.766 " />
<polygon stroke="black" stroke-width="1" fill="rgb(204, 204, 204)" fill-opacity="0.25" points="141.753,583.542 150.448,584.628 180.731,342.280 168.362,340.721 " />
<polygon stroke="black" stroke-width="1" fill="rgb(204, 204, 204)" fill-opacity="0.25" points="185.252,590.334 194.182,592.114 241.935,352.637 229.752,350.234 " />
<polygon stroke="black" stroke-width="1" fill="rgb(204, 204, 204)" fill-opacity="0.25" points="301.686,622.526 310.267,625.700 397.858,397.766 386.221,393.435 " />
<polygon stroke="black" stroke-width="1" fill="rgb(204, 204, 204)" fill-opacity="0.25" points="132.915,582.586 141.753,583.542 168.362,340.721 155.939,339.348 " />
<polygon stroke="black" stroke-width="1" fill="rgb(204, 204, 204)" fill-opacity="0.25" points="176.430,588.696 185.252,590.334 229.752,350.234 217.550,347.995 " />
<polygon stroke="black" stroke-width="1" fill="rgb(204, 204, 204)" fill-opacity="0.25" points="292.965,619.423 301.686,622.526 386.221,393.435 374.507,389.249 " />
<polygon stroke="black" stroke-width="1" fill="rgb(204, 204, 204)" fill-opacity="0.25" points="123.896,581.759 132.915,582.586 155.939,339.348 143.469,338.171 " />
<polygon stroke="black" stroke-width="1" fill="rgb(204, 204, 204)" fill-opacity="0.25" points="284.141,616.403 292.965,619.423 374.507,389.249 362.714,385.204 " />
<polygon stroke="black" stroke-width="1" fill="rgb(204, 204, 204)" fill-opacity="0.25" points="114.707,581.065 123.896,581.759 143.469,338.171 130.959,337.199 " />
<polygon stroke="black" stroke-width="1" fill="rgb(204, 204, 204)" fill-opacity="0.25" points="275.253,613.481 284.141,616.403 362.714,385.204 350.842,381.298 " />
<polygon stroke="black" stroke-width="1" fill="rgb(204, 204, 204)" fill-opacity="0.25" points="105.420,580.508 114.707,581.065 130.959,337.199 118.427,336.437 " />
<polygon stroke="black" stroke-width="1" fill="rgb(204, 204, 204)" fill-opacity="0.25" points="266.329,610.665 275.253,613.481 350.842,381.298 338.896,377.530 " />
<polygon stroke="black" stroke-width="1" fill="rgb(204, 204, 204)" fill-opacity="0.25" points="96.142,580.093 105.420,580.508 118.427,336.437 105.886,335.889 " />
<polygon stroke="black" stroke-width="1" fill="rgb(204, 204, 204)" fill-opacity="0.25" points="257.383,607.960 266.329,610.665 338.896,377.530 326.885,373.900 " />
<polygon stroke="black" stroke-width="1" fill="rgb(204, 204, 204)" fill-opacity="0.25" points="37.516,233.519 48.085,228.011 39.162,212.721 28.018,219.189 " />
<polygon stroke="black" stroke-width="1" fill="rgb(204, 204, 204)" fill-opacity="0.25" points="278.842,358.747 291.198,360.806 305.921,254.297 293.224,252.189 " />
<polygon stroke="black" stroke-width="1" fill="rgb(204, 204, 204)" fill-opacity="0.25" points="44.539,322.590 56.864,324.246 71.984,217.279 59.950,215.737 " />
<polygon stroke="black" stroke-width="1" fill="rgb(204, 204, 204)" fill-opacity="0.25" points="205.319,345.922 217.550,347.995 232.101,241.462 220.267,239.431 " />
<polygon stroke="black" stroke-width="1" fill="rgb(204, 204, 204)" fill-opacity="0.25" points="266.526,356.623 278.842,358.747 293.224,252.189 280.673,250.033 " />
<polygon stroke="black" stroke-width="1" fill="rgb(204, 204, 204)" fill-opacity="0.25" points="32.233,320.981 44.539,322.590 59.950,215.737 48.054,214.268 " />
<polygon stroke="black" stroke-width="1" fill="rgb(204, 204, 204)" fill-opacity="0.25" points="193.065,343.911 205.319,345.922 220.267,239.431 208.436,237.453 " />
<polygon stroke="black" stroke-width="1" fill="rgb(204, 204, 204)" fill-opacity="0.25" points="254.247,354.460 266.526,356.623 280.673,250.033 268.282,247.855 " />
<polygon stroke="black" stroke-width="1" fill="rgb(204, 204, 204)" fill-opacity="0.25" points="19.932,319.420 32.233,320.981 48.054,214.268 36.220,212.855 " />
<polygon stroke="black" stroke-width="1" fill="rgb(204, 204, 204)" fill-opacity="0.25" points="180.779,341.968 193.065,343.911 208.436,237.453 196.530,235.517 " />
<polygon stroke="black" stroke-width="1" fill="rgb(204, 204, 204)" fill-opacity="0.25" points="242.000,352.284 254.247,354.460 268.282,247.855 256.062,245.686 " />
<polygon stroke="black" stroke-width="1" fill="rgb(204, 204, 204)" fill-opacity="0.25" points="402.782,375.517 415.096,376.982 430.887,270.341 419.019,269.015 " />
<polygon stroke="black" stroke-width="1" fill="rgb(204, 204, 204)" fill-opacity="0.25" points="168.455,340.086 180.779,341.968 196.530,235.517 184.487,233.609 " />
<polygon stroke="black" stroke-width="1" fill="rgb(204, 204, 204)" fill-opacity="0.25" points="229.772,350.122 242.000,352.284 256.062,245.686 244.011,243.549 " />
<polygon stroke="black" stroke-width="1" fill="rgb(204, 204, 204)" fill-opacity="0.25" points="390.449,374.076 402.782,375.517 419.019,269.015 407.045,267.691 " />
<polygon stroke="black" stroke-width="1" fill="rgb(204, 204, 204)" fill-opacity="0.25" points="156.091,338.256 168.455,340.086 184.487,233.609 172.269,231.715 " />
<polygon stroke="black" stroke-width="1" fill="rgb(204, 204, 204)" fill-opacity="0.25" points="217.550,347.995 229.772,350.122 244.011,243.549 232.101,241.462 " />
<polygon stroke="black" stroke-width="1" fill="rgb(204, 204, 204)" fill-opacity="0.25" points="378.093,372.638 390.449,374.076 407.045,267.691 394.904,266.338 " />
<polygon stroke="black" stroke-width="1" fill="rgb(204, 204, 204)" fill-opacity="0.25" points="143.694,336.465 156.091,338.256 172.269,231.715 159.866,229.827 " />
<polygon stroke="black" stroke-width="1" fill="rgb(204, 204, 204)" fill-opacity="0.25" points="365.711,371.180 378.093,372.638 394.904,266.338 382.565,264.925 " />
<polygon stroke="black" stroke-width="1" fill="rgb(204, 204, 204)" fill-opacity="0.25" points="131.271,334.697 143.694,336.465 159.866,229.827 147.301,227.940 " />
<polygon stroke="black" stroke-width="1" fill="rgb(204, 204, 204)" fill-opacity="0.25" points="353.304,369.674 365.711,371.180 382.565,264.925 370.029,263.426 " />
<polygon stroke="black" stroke-width="1" fill="rgb(204, 204, 204)" fill-opacity="0.25" points="118.840,332.938 131.271,334.697 147.301,227.940 134.622,226.059 " />
<polygon stroke="black" stroke-width="1" fill="rgb(204, 204, 204)" fill-opacity="0.25" points="340.878,368.096 353.304,369.674 370.029,263.426 357.323,261.823 " />
<polygon stroke="black" stroke-width="1" fill="rgb(204, 204, 204)" fill-opacity="0.25" points="106.411,331.181 118.840,332.938 134.622,226.059 121.897,224.197 " />
<polygon stroke="black" stroke-width="1" fill="rgb(204, 204, 204)" fill-opacity="0.25" points="328.441,366.428 340.878,368.096 357.323,261.823 344.496,260.106 " />
<polygon stroke="black" stroke-width="1" fill="rgb(204, 204, 204)" fill-opacity="0.25" points="93.992,329.424 106.411,331.181 121.897,224.197 109.203,222.372 " />
<polygon stroke="black" stroke-width="1" fill="rgb(204, 204, 204)" fill-opacity="0.25" points="316.008,364.657 328.441,366.428 344.496,260.106 331.611,258.273 " />
<polygon stroke="black" stroke-width="1" fill="rgb(204, 204, 204)" fill-opacity="0.25" points="81.591,327.675 93.992,329.424 109.203,222.372 96.619,220.602 " />
<polygon stroke="black" stroke-width="1" fill="rgb(204, 204, 204)" fill-opacity="0.25" points="303.589,362.781 316.008,364.657 331.611,258.273 318.733,256.332 " />
<polygon stroke="black" stroke-width="1" fill="rgb(204, 204, 204)" fill-opacity="0.25" points="69.214,325.945 81.591,327.675 96.619,220.602 84.203,218.901 " />
<polygon stroke="black" stroke-width="1" fill="rgb(204, 204, 204)" fill-opacity="0.25" points="291.198,360.806 303.589,362.781 318.733,256.332 305.921,254.297 " />
<polygon stroke="black" stroke-width="1" fill="rgb(204, 204, 204)" fill-opacity="0.25" points="466.901,117.927 480.915,121.119 487.619,107.543 472.827,103.487 " />
<polygon stroke="black" stroke-width="1" fill="rgb(204, 204, 204)" fill-opacity="0.25" points="196.516,235.601 208.430,237.487 227.733,120.491 213.857,123.701 " />
<polygon stroke="black" stroke-width="1" fill="rgb(204, 204, 204)" fill-opacity="0.25" points="256.026,245.883 268.198,248.304 290.772,136.681 278.675,129.021 " />
<polygon stroke="black" stroke-width="1" fill="rgb(204, 204, 204)" fill-opacity="0.25" points="410.874,296.823 418.572,305.952 432.469,295.831 424.615,285.569 " />
<polygon stroke="black" stroke-width="1" fill="rgb(204, 204, 204)" fill-opacity="0.25" points="184.465,233.750 196.516,235.601 213.857,123.701 199.425,128.680 " />
<polygon stroke="black" stroke-width="1" fill="rgb(204, 204, 204)" fill-opacity="0.25" points="244.001,243.606 256.026,245.883 278.675,129.021 266.429,123.517 " />
<polygon stroke="black" stroke-width="1" fill="rgb(204, 204, 204)" fill-opacity="0.25" points="401.615,289.115 410.874,296.823 424.615,285.569 415.752,275.436 " />
<polygon stroke="black" stroke-width="1" fill="rgb(204, 204, 204)" fill-opacity="0.25" points="172.237,231.918 184.465,233.750 199.425,128.680 184.492,135.133 " />
<polygon stroke="black" stroke-width="1" fill="rgb(204, 204, 204)" fill-opacity="0.25" points="232.101,241.462 244.001,243.606 266.429,123.517 253.931,120.272 " />
<polygon stroke="black" stroke-width="1" fill="rgb(204, 204, 204)" fill-opacity="0.25" points="391.121,282.862 401.615,289.115 415.752,275.436 406.055,264.827 " />
<polygon stroke="black" stroke-width="1" fill="rgb(204, 204, 204)" fill-opacity="0.25" points="159.823,230.102 172.237,231.918 184.492,135.133 169.174,142.735 " />
<polygon stroke="black" stroke-width="1" fill="rgb(204, 204, 204)" fill-opacity="0.25" points="379.869,277.605 391.121,282.862 406.055,264.827 395.886,253.164 " />
<polygon stroke="black" stroke-width="1" fill="rgb(204, 204, 204)" fill-opacity="0.25" points="147.243,228.316 159.823,230.102 169.174,142.735 153.600,151.147 " />
<polygon stroke="black" stroke-width="1" fill="rgb(204, 204, 204)" fill-opacity="0.25" points="368.037,273.198 379.869,277.605 395.886,253.164 385.184,240.496 " />
<polygon stroke="black" stroke-width="1" fill="rgb(204, 204, 204)" fill-opacity="0.25" points="134.542,226.593 147.243,228.316 153.600,151.147 137.920,160.028 " />
<polygon stroke="black" stroke-width="1" fill="rgb(204, 204, 204)" fill-opacity="0.25" points="355.825,269.341 368.037,273.198 385.184,240.496 374.032,226.945 " />
<polygon stroke="black" stroke-width="1" fill="rgb(204, 204, 204)" fill-opacity="0.25" points="121.782,224.992 134.542,226.593 137.920,160.028 122.306,169.043 " />
<polygon stroke="black" stroke-width="1" fill="rgb(204, 204, 204)" fill-opacity="0.25" points="343.371,265.825 355.825,269.341 374.032,226.945 362.516,212.771 " />
<polygon stroke="black" stroke-width="1" fill="rgb(204, 204, 204)" fill-opacity="0.25" points="109.032,223.612 121.782,224.992 122.306,169.043 106.935,177.871 " />
<polygon stroke="black" stroke-width="1" fill="rgb(204, 204, 204)" fill-opacity="0.25" points="330.779,262.536 343.371,265.825 362.516,212.771 350.741,198.337 " />
<polygon stroke="black" stroke-width="1" fill="rgb(204, 204, 204)" fill-opacity="0.25" points="96.364,222.604 109.032,223.612 106.935,177.871 91.982,186.231 " />
<polygon stroke="black" stroke-width="1" fill="rgb(204, 204, 204)" fill-opacity="0.25" points="318.134,259.414 330.779,262.536 350.741,198.337 338.811,184.056 " />
<polygon stroke="black" stroke-width="1" fill="rgb(204, 204, 204)" fill-opacity="0.25" points="83.838,222.209 96.364,222.604 91.982,186.231 77.621,193.908 " />
<polygon stroke="black" stroke-width="1" fill="rgb(204, 204, 204)" fill-opacity="0.25" points="305.509,256.432 318.134,259.414 338.811,184.056 326.815,170.354 " />
<polygon stroke="black" stroke-width="1" fill="rgb(204, 204, 204)" fill-opacity="0.25" points="71.519,222.621 83.838,222.209 77.621,193.908 63.949,200.667 " />
<polygon stroke="black" stroke-width="1" fill="rgb(204, 204, 204)" fill-opacity="0.25" points="292.958,253.584 305.509,256.432 326.815,170.354 314.806,157.647 " />
<polygon stroke="black" stroke-width="1" fill="rgb(204, 204, 204)" fill-opacity="0.25" points="59.520,224.415 71.519,222.621 63.949,200.667 51.117,206.768 " />
<polygon stroke="black" stroke-width="1" fill="rgb(204, 204, 204)" fill-opacity="0.25" points="220.267,239.431 232.101,241.462 253.931,120.272 241.067,119.291 " />
<polygon stroke="black" stroke-width="1" fill="rgb(204, 204, 204)" fill-opacity="0.25" points="280.514,250.873 292.958,253.584 314.806,157.647 302.799,146.312 " />
<polygon stroke="black" stroke-width="1" fill="rgb(204, 204, 204)" fill-opacity="0.25" points="48.085,228.011 59.520,224.415 51.117,206.768 39.162,212.721 " />
<polygon stroke="black" stroke-width="1" fill="rgb(204, 204, 204)" fill-opacity="0.25" points="208.430,237.487 220.267,239.431 241.067,119.291 227.733,120.491 " />
<polygon stroke="black" stroke-width="1" fill="rgb(204, 204, 204)" fill-opacity="0.25" points="268.198,248.304 280.514,250.873 302.799,146.312 290.772,136.681 " />
<polygon stroke="black" stroke-width="1" fill="rgb(204, 204, 204)" fill-opacity="0.25" points="165.411,109.703 182.398,111.667 179.989,67.566 162.742,70.410 " />
<polygon stroke="black" stroke-width="1" fill="rgb(204, 204, 204)" fill-opacity="0.25" points="451.578,115.776 466.901,117.927 472.827,103.487 456.555,100.266 " />
<polygon stroke="black" stroke-width="1" fill="rgb(204, 204, 204)" fill-opacity="0.25" points="147.784,108.087 165.411,109.703 162.742,70.410 145.092,73.986 " />
<polygon stroke="black" stroke-width="1" fill="rgb(204, 204, 204)" fill-opacity="0.25" points="435.044,114.494 451.578,115.776 456.555,100.266 438.908,97.737 " />
<polygon stroke="black" stroke-width="1" fill="rgb(204, 204, 204)" fill-opacity="0.25" points="129.799,106.976 147.784,108.087 145.092,73.986 127.353,78.309 " />
<polygon stroke="black" stroke-width="1" fill="rgb(204, 204, 204)" fill-opacity="0.25" points="417.503,113.948 435.044,114.494 438.908,97.737 420.144,95.801 " />
<polygon stroke="black" stroke-width="1" fill="rgb(204, 204, 204)" fill-opacity="0.25" points="111.776,106.456 129.799,106.976 127.353,78.309 109.809,83.295 " />
<polygon stroke="black" stroke-width="1" fill="rgb(204, 204, 204)" fill-opacity="0.25" points="399.241,114.045 417.503,113.948 420.144,95.801 401.603,91.494 " />
<polygon stroke="black" stroke-width="1" fill="rgb(204, 204, 204)" fill-opacity="0.25" points="94.051,106.617 111.776,106.456 109.809,83.295 91.633,87.862 " />
<polygon stroke="black" stroke-width="1" fill="rgb(204, 204, 204)" fill-opacity="0.25" points="380.622,114.633 399.241,114.045 401.603,91.494 383.791,86.475 " />
<polygon stroke="black" stroke-width="1" fill="rgb(204, 204, 204)" fill-opacity="0.25" points="76.945,107.542 94.051,106.617 91.633,87.862 73.240,90.285 " />
<polygon stroke="black" stroke-width="1" fill="rgb(204, 204, 204)" fill-opacity="0.25" points="362.038,115.589 380.622,114.633 383.791,86.475 365.880,81.817 " />
<polygon stroke="black" stroke-width="1" fill="rgb(204, 204, 204)" fill-opacity="0.25" points="60.754,109.288 76.945,107.542 73.240,90.285 55.934,93.417 " />
<polygon stroke="black" stroke-width="1" fill="rgb(204, 204, 204)" fill-opacity="0.25" points="343.864,116.751 362.038,115.589 365.880,81.817 348.177,77.583 " />
<polygon stroke="black" stroke-width="1" fill="rgb(204, 204, 204)" fill-opacity="0.25" points="45.738,111.954 60.754,109.288 55.934,93.417 39.967,97.285 " />
<polygon stroke="black" stroke-width="1" fill="rgb(204, 204, 204)" fill-opacity="0.25" points="326.423,117.973 343.864,116.751 348.177,77.583 330.955,73.833 " />
<polygon stroke="black" stroke-width="1" fill="rgb(204, 204, 204)" fill-opacity="0.25" points="32.027,115.681 45.738,111.954 39.967,97.285 25.453,101.978 " />
<polygon stroke="black" stroke-width="1" fill="rgb(204, 204, 204)" fill-opacity="0.25" points="241.067,119.291 253.931,120.272 255.639,63.372 241.712,62.986 " />
<polygon stroke="black" stroke-width="1" fill="rgb(204, 204, 204)" fill-opacity="0.25" points="309.950,119.112 326.423,117.973 330.955,73.833 314.431,70.610 " />
<polygon stroke="black" stroke-width="1" fill="rgb(204, 204, 204)" fill-opacity="0.25" points="19.630,120.648 32.027,115.681 25.453,101.978 12.368,107.662 " />
<polygon stroke="black" stroke-width="1" fill="rgb(204, 204, 204)" fill-opacity="0.25" points="227.762,117.802 241.067,119.291 241.712,62.986 227.390,63.183 " />
<polygon stroke="black" stroke-width="1" fill="rgb(204, 204, 204)" fill-opacity="0.25" points="294.570,120.028 309.950,119.112 314.431,70.610 298.719,67.944 " />
<polygon stroke="black" stroke-width="1" fill="rgb(204, 204, 204)" fill-opacity="0.25" points="8.444,127.043 19.630,120.648 12.368,107.662 0.532,114.563 " />
<polygon stroke="black" stroke-width="1" fill="rgb(204, 204, 204)" fill-opacity="0.25" points="213.645,115.918 227.762,117.802 227.390,63.183 212.396,63.988 " />
<polygon stroke="black" stroke-width="1" fill="rgb(204, 204, 204)" fill-opacity="0.25" points="280.262,120.593 294.570,120.028 298.719,67.944 283.810,65.850 " />
<polygon stroke="black" stroke-width="1" fill="rgb(204, 204, 204)" fill-opacity="0.25" points="493.628,125.548 505.145,131.410 513.141,118.983 500.990,112.631 " />
<polygon stroke="black" stroke-width="1" fill="rgb(204, 204, 204)" fill-opacity="0.25" points="198.525,113.807 213.645,115.918 212.396,63.988 196.590,65.437 " />
<polygon stroke="black" stroke-width="1" fill="rgb(204, 204, 204)" fill-opacity="0.25" points="266.836,120.698 280.262,120.593 283.810,65.850 269.548,64.326 " />
<polygon stroke="black" stroke-width="1" fill="rgb(204, 204, 204)" fill-opacity="0.25" points="480.915,121.119 493.628,125.548 500.990,112.631 487.619,107.543 " />
<polygon stroke="black" stroke-width="1" fill="rgb(204, 204, 204)" fill-opacity="0.25" points="182.398,111.667 198.525,113.807 196.590,65.437 179.989,67.566 " />
<polygon stroke="black" stroke-width="1" fill="rgb(204, 204, 204)" fill-opacity="0.25" points="253.931,120.272 266.836,120.698 269.548,64.326 255.639,63.372 " />
<polygon stroke="black" stroke-width="1" fill="rgb(204, 204, 204)" fill-opacity="0.25" points="384.268,43.149 402.358,39.245 400.771,13.666 382.930,12.976 " />
<polygon stroke="black" stroke-width="1" fill="rgb(204, 204, 204)" fill-opacity="0.25" points="74.491,28.823 91.594,36.010 92.943,14.838 75.354,11.657 " />
<polygon stroke="black" stroke-width="1" fill="rgb(204, 204, 204)" fill-opacity="0.25" points="366.179,47.054 384.268,43.149 382.930,12.976 365.089,12.287 " />
<polygon stroke="black" stroke-width="1" fill="rgb(204, 204, 204)" fill-opacity="0.25" points="58.123,22.389 74.491,28.823 75.354,11.657 58.572,8.753 " />
<polygon stroke="black" stroke-width="1" fill="rgb(204, 204, 204)" fill-opacity="0.25" points="348.371,50.821 366.179,47.054 365.089,12.287 347.511,11.637 " />
<polygon stroke="black" stroke-width="1" fill="rgb(204, 204, 204)" fill-opacity="0.25" points="42.614,16.970 58.123,22.389 58.572,8.753 42.745,6.248 " />
<polygon stroke="black" stroke-width="1" fill="rgb(204, 204, 204)" fill-opacity="0.25" points="331.093,54.311 348.371,50.821 347.511,11.637 330.431,11.056 " />
<polygon stroke="black" stroke-width="1" fill="rgb(204, 204, 204)" fill-opacity="0.25" points="27.933,12.828 42.614,16.970 42.745,6.248 27.866,4.286 " />
<polygon stroke="black" stroke-width="1" fill="rgb(204, 204, 204)" fill-opacity="0.25" points="241.712,62.986 255.639,63.372 255.320,9.682 241.397,9.762 " />
<polygon stroke="black" stroke-width="1" fill="rgb(204, 204, 204)" fill-opacity="0.25" points="314.541,57.383 331.093,54.311 330.431,11.056 314.032,10.561 " />
<polygon stroke="black" stroke-width="1" fill="rgb(204, 204, 204)" fill-opacity="0.25" points="13.903,10.239 27.933,12.828 27.866,4.286 13.756,3.052 " />
<polygon stroke="black" stroke-width="1" fill="rgb(204, 204, 204)" fill-opacity="0.25" points="227.435,61.836 241.712,62.986 241.397,9.762 227.149,9.967 " />
<polygon stroke="black" stroke-width="1" fill="rgb(204, 204, 204)" fill-opacity="0.25" points="298.807,59.915 314.541,57.383 314.032,10.561 298.405,10.168 " />
<polygon stroke="black" stroke-width="1" fill="rgb(204, 204, 204)" fill-opacity="0.25" points="0.225,9.445 13.903,10.239 13.756,3.052 0.072,2.736 " />
<polygon stroke="black" stroke-width="1" fill="rgb(204, 204, 204)" fill-opacity="0.25" points="212.535,59.975 227.435,61.836 227.149,9.967 212.321,10.297 " />
<polygon stroke="black" stroke-width="1" fill="rgb(204, 204, 204)" fill-opacity="0.25" points="283.870,61.804 298.807,59.915 298.405,10.168 283.527,9.888 " />
<polygon stroke="black" stroke-width="1" fill="rgb(204, 204, 204)" fill-opacity="0.25" points="498.867,7.388 512.565,6.782 512.667,0.072 498.967,0.267 " />
<polygon stroke="black" stroke-width="1" fill="rgb(204, 204, 204)" fill-opacity="0.25" points="196.858,57.493 212.535,59.975 212.321,10.297 196.768,10.753 " />
<polygon stroke="black" stroke-width="1" fill="rgb(204, 204, 204)" fill-opacity="0.25" points="269.575,62.972 283.870,61.804 283.527,9.888 269.254,9.724 " />
<polygon stroke="black" stroke-width="1" fill="rgb(204, 204, 204)" fill-opacity="0.25" points="484.778,9.865 498.867,7.388 498.967,0.267 484.803,1.450 " />
<polygon stroke="black" stroke-width="1" fill="rgb(204, 204, 204)" fill-opacity="0.25" points="180.389,54.511 196.858,57.493 196.768,10.753 180.481,11.342 " />
<polygon stroke="black" stroke-width="1" fill="rgb(204, 204, 204)" fill-opacity="0.25" points="255.639,63.372 269.575,62.972 269.254,9.724 255.320,9.682 " />
<polygon stroke="black" stroke-width="1" fill="rgb(204, 204, 204)" fill-opacity="0.25" points="470.015,14.028 484.778,9.865 484.803,1.450 469.835,3.477 " />
<polygon stroke="black" stroke-width="1" fill="rgb(204, 204, 204)" fill-opacity="0.25" points="163.230,51.177 180.389,54.511 180.481,11.342 163.556,12.068 " />
<polygon stroke="black" stroke-width="1" fill="rgb(204, 204, 204)" fill-opacity="0.25" points="454.403,19.633 470.015,14.028 469.835,3.477 453.875,6.185 " />
<polygon stroke="black" stroke-width="1" fill="rgb(204, 204, 204)" fill-opacity="0.25" points="145.569,47.656 163.230,51.177 163.556,12.068 146.179,12.934 " />
<polygon stroke="black" stroke-width="1" fill="rgb(204, 204, 204)" fill-opacity="0.25" points="437.916,26.414 454.403,19.633 453.875,6.185 436.913,9.423 " />
<polygon stroke="black" stroke-width="1" fill="rgb(204, 204, 204)" fill-opacity="0.25" points="127.658,44.114 145.569,47.656 146.179,12.934 128.588,13.935 " />
<polygon stroke="black" stroke-width="1" fill="rgb(204, 204, 204)" fill-opacity="0.25" points="420.676,34.071 437.916,26.414 436.913,9.423 419.101,13.035 " />
<polygon stroke="black" stroke-width="1" fill="rgb(204, 204, 204)" fill-opacity="0.25" points="109.748,40.665 127.658,44.114 128.588,13.935 111.012,15.016 " />
<polygon stroke="black" stroke-width="1" fill="rgb(204, 204, 204)" fill-opacity="0.25" points="402.358,39.245 420.676,34.071 419.101,13.035 400.771,13.666 " />
<polygon stroke="black" stroke-width="1" fill="rgb(204, 204, 204)" fill-opacity="0.25" points="91.594,36.010 109.748,40.665 111.012,15.016 92.943,14.838 " />

</svg>
